<?xml version="1.0" encoding="UTF-8"?>
<svg version="1.1" xmlns="http://www.w3.org/2000/svg" width="500" height="500">
<path d="M0 0 C165 0 330 0 500 0 C500 165 500 330 500 500 C335 500 170 500 0 500 C0 335 0 170 0 0 Z " fill="#191919" transform="translate(0,0)"/>
<path d="M0 0 C0.85207031 -0.03996094 1.70414063 -0.07992187 2.58203125 -0.12109375 C6.31797893 0.67986655 7.67083756 2.60355894 10.1875 5.4375 C11.91381836 8.40556335 11.91381836 8.40556335 13.58984375 11.9362793 C14.28650383 13.37791964 14.98435823 14.81898316 15.68310547 16.25961304 C16.27052521 17.48056986 16.27052521 17.48056986 16.86981201 18.72619247 C19.18552999 23.4910713 21.57813437 28.21742368 23.96097183 32.94899809 C25.54323671 36.09256419 27.12100802 39.23838457 28.69921875 42.38398743 C29.02723543 43.03759245 29.35525211 43.69119747 29.69320869 44.36460871 C34.2951807 53.53480971 38.89117345 62.70800917 43.48709106 71.88124561 C47.22498218 79.34148141 50.96517409 86.80054819 54.71044922 94.25708008 C57.99937716 100.80508157 61.28411235 107.35516593 64.56378651 113.90780753 C66.2943309 117.36498807 68.02696894 120.82108258 69.76467896 124.27466774 C71.39181175 127.50863602 73.01334743 130.74534732 74.63055611 133.98428917 C75.5091059 135.74016644 76.39363011 137.49305042 77.27830505 139.24584961 C77.79683548 140.28703445 78.31536591 141.3282193 78.84960938 142.4009552 C79.30380249 143.30657605 79.75799561 144.2121969 80.22595215 145.14526081 C81.1875 147.4375 81.1875 147.4375 81.1875 150.4375 C79.08984375 152.2421875 79.08984375 152.2421875 76.125 154.3125 C59.14082859 166.55196017 43.98746963 181.03678393 31.43554688 197.78369141 C30.27394692 199.32294769 29.08335901 200.84020972 27.890625 202.35546875 C14.84433236 219.12596904 4.30920123 238.25295959 -3.78125 257.86328125 C-9.30635775 270.98143649 -15.75716444 283.62086095 -22.1875 296.3125 C-24.51107264 300.91242345 -26.83064408 305.51434969 -29.1484375 310.1171875 C-29.71157654 311.23333435 -30.27471558 312.3494812 -30.85491943 313.49945068 C-35.08757221 321.91671547 -39.18312462 330.39363802 -43.15536499 338.9369812 C-48.27007123 349.81897915 -51.79786366 356.21571574 -63.4296875 360.421875 C-64.20993286 360.71024231 -64.99017822 360.99860962 -65.79406738 361.29571533 C-68.42299872 362.2657717 -71.05526079 363.22645951 -73.6875 364.1875 C-75.56357661 364.87819282 -77.43938315 365.56961959 -79.31494141 366.26171875 C-83.47973512 367.79781713 -87.64576003 369.33051727 -91.8125 370.86132812 C-102.89809846 374.93728831 -113.97031371 379.04944811 -125.04368782 383.15847397 C-129.07772281 384.65529626 -133.11231164 386.15061087 -137.14748573 387.64435959 C-139.71104469 388.59349297 -142.27427897 389.54350146 -144.83749771 390.49355316 C-146.69008141 391.17977463 -148.543143 391.86470551 -150.39620972 392.54962158 C-155.9887803 394.62202951 -161.56765668 396.71953276 -167.11816406 398.90234375 C-168.56565536 399.46840332 -168.56565536 399.46840332 -170.04238892 400.04589844 C-171.80763102 400.73941933 -173.56965488 401.44121973 -175.32748413 402.15332031 C-179.6385928 403.84500202 -183.09544141 404.93830679 -187.8125 404.4375 C-190.80074051 402.79616035 -193.27433418 400.51383164 -194.8125 397.4375 C-195.62551652 389.33953347 -193.30749291 384.35867647 -189.5 377.3125 C-188.38222975 375.16373984 -187.26638669 373.01397622 -186.15234375 370.86328125 C-185.58757324 369.78385254 -185.02280273 368.70442383 -184.44091797 367.59228516 C-182.04177954 362.9443591 -179.79631727 358.22903868 -177.5625 353.5 C-173.08707313 344.08185903 -168.55422625 334.69269563 -164 325.3125 C-162.62097106 322.47141371 -161.24208264 319.63025924 -159.86328125 316.7890625 C-159.52250549 316.08688095 -159.18172974 315.3846994 -158.83062744 314.66123962 C-155.44064042 307.67430637 -152.06253145 300.68166744 -148.6875 293.6875 C-148.11652588 292.50430176 -147.54555176 291.32110352 -146.95727539 290.10205078 C-145.24212377 286.54730973 -143.52725512 282.99243233 -141.8125 279.4375 C-134.11131427 263.47184182 -126.39663055 247.51297761 -118.65777588 231.56555176 C-114.35580093 222.69915192 -110.06994737 213.82539492 -105.8125 204.9375 C-101.21539915 195.34054066 -96.58324673 185.76097109 -91.9375 176.1875 C-86.84446694 165.69216116 -81.75760063 155.19393878 -76.6875 144.6875 C-76.11644531 143.50414062 -75.54539062 142.32078125 -74.95703125 141.1015625 C-73.2419656 137.546982 -71.52717607 133.99226844 -69.8125 130.4375 C-62.11098837 114.47116618 -54.39613137 98.5115511 -46.6567688 82.5635376 C-42.37532784 73.73976154 -38.11141403 64.90800949 -33.875 56.0625 C-31.85596745 51.85330054 -29.83455516 47.64524817 -27.8125 43.4375 C-27.47740417 42.73961365 -27.14230835 42.04172729 -26.79705811 41.32269287 C-24.52331917 36.58811015 -22.24421481 31.85616044 -19.95944214 27.12689209 C-19.20209502 25.55738627 -18.44630572 23.98712767 -17.69216919 22.41607666 C-16.6323326 20.20891384 -15.56681367 18.00457848 -14.5 15.80078125 C-14.03037086 14.81799446 -14.03037086 14.81799446 -13.55125427 13.81535339 C-6.91838401 0.17633063 -6.91838401 0.17633063 0 0 Z " fill="#FEFEFE" transform="translate(246.8125,47.5625)"/>
<path d="M0 0 C3 1 3 1 4.09200478 2.62070084 C4.43181562 3.32919048 4.77162647 4.03768013 5.12173462 4.76763916 C5.71742689 5.98961376 5.71742689 5.98961376 6.32515335 7.23627472 C6.96785234 8.59320057 6.96785234 8.59320057 7.62353516 9.97753906 C8.08541607 10.93061699 8.54729698 11.88369492 9.02317429 12.86565399 C10.03850036 14.96273903 11.04934762 17.06199675 12.05637741 19.16307831 C14.55664662 24.37695341 17.08570976 29.57679577 19.61373162 34.7772584 C20.52130743 36.64490139 21.42775247 38.51309055 22.33416557 40.38129807 C29.04999796 54.21118156 35.92886815 67.95891826 42.81798077 81.70308495 C44.180162 84.42126058 45.54121003 87.1400029 46.9022429 89.85875368 C51.39031737 98.82392837 55.88241297 107.78708603 60.375 116.75 C64.92939693 125.83641869 69.48299035 134.92323696 74.03270876 144.01199937 C75.66512374 147.272754 77.29834608 150.53309796 78.93375778 153.79235077 C85.54662764 166.97162103 92.10747051 180.16949056 98.41816521 193.49682236 C100.97748155 198.89878165 103.6147801 204.25026905 106.35546875 209.5625 C106.86903758 210.56179976 106.86903758 210.56179976 107.39298153 211.58128738 C108.65219872 214.03128636 109.91397381 216.47957817 111.19555664 218.91796875 C112.17851794 220.79308332 113.14329794 222.67665217 114.10546875 224.5625 C114.94307739 226.17318359 114.94307739 226.17318359 115.79760742 227.81640625 C117.17748816 231.46993819 117.34927193 234.12339623 117 238 C113.92307692 243.53846154 113.92307692 243.53846154 111 245 C104.02747889 245.68835286 98.41807952 244.55619693 91.984375 241.9765625 C91.12260651 241.6474437 90.26083801 241.31832489 89.37295532 240.97923279 C86.49269999 239.87595204 83.62174241 238.75023265 80.75 237.625 C77.6131492 236.41727803 74.47397094 235.21573844 71.33468628 234.01435852 C69.04760798 233.13870819 66.76127344 232.26111327 64.47561646 231.38175964 C54.50402783 227.55161496 44.49589311 223.82433265 34.4765625 220.12109375 C33.68666931 219.82897003 32.89677612 219.53684631 32.08294678 219.23587036 C24.93441257 216.59221297 17.78481754 213.95143336 10.63415527 211.3135376 C6.86582701 209.92308169 3.09878237 208.52919665 -0.66743851 207.13304329 C-2.06564186 206.61545356 -3.46431102 206.09912017 -4.8634758 205.58413506 C-6.79508617 204.8731019 -8.72508813 204.15785701 -10.65478516 203.44165039 C-11.74022614 203.04071671 -12.82566711 202.63978302 -13.94400024 202.22669983 C-22.78464875 198.67800124 -26.2429143 194.91006586 -30.4675293 186.38964844 C-30.78837494 185.74678894 -31.10922058 185.10392944 -31.43978882 184.44158936 C-32.49021698 182.33359271 -33.53216891 180.22152401 -34.57421875 178.109375 C-35.30539032 176.63888997 -36.03715489 175.16869966 -36.76948547 173.6987915 C-38.68948999 169.84171454 -40.60259895 165.9812609 -42.51391602 162.11987305 C-45.58191748 155.92451415 -48.66022072 149.7342693 -51.73887062 143.54419708 C-52.81407142 141.37980173 -53.88622388 139.21391726 -54.95793152 137.04779053 C-55.61210813 135.72941958 -56.26634568 134.41107887 -56.9206543 133.09277344 C-57.49261032 131.93759216 -58.06456635 130.78241089 -58.65385437 129.59222412 C-59.76439392 127.13505413 -59.76439392 127.13505413 -61 126 C-64.65851741 87.72627945 -41.29920491 47.38492666 -18.05664062 18.87451172 C-12.45386827 12.16610352 -6.31348091 6.03448912 0 0 Z " fill="#FEFEFE" transform="translate(331,206)"/>
</svg>
